<?xml version="1.0" encoding="UTF-8"?>
<svg xmlns="http://www.w3.org/2000/svg" xmlns:xlink="http://www.w3.org/1999/xlink" width="1832pt" height="1818pt" viewBox="0 0 1832 1818" version="1.1">
<g id="surface1">
<path style=" stroke:none;fill-rule:nonzero;fill:rgb(97.647059%,97.647059%,97.647059%);fill-opacity:1;" d="M 677.863281 1366.34375 C 653.324219 1411.957031 627.035156 1460.023438 599.25 1510.664062 L 648.007812 1533.222656 C 654.019531 1520.050781 660.445312 1505.632812 667.277344 1490.1875 C 699.078125 1482.644531 688.34375 1455.582031 737.21875 1455.398438 C 925.589844 1549.976562 928.039062 1336.175781 1100.957031 1493.859375 C 1028.242188 1349.191406 830.089844 1270.742188 722.015625 1437.351562 L 853.785156 1398.820312 L 803.785156 1420.429688 L 683.1875 1453.957031 C 712.808594 1386.179688 748.699219 1303.503906 790.78125 1216.941406 C 835.132812 1215.214844 840.238281 1158.03125 921.339844 1157.714844 C 1239.898438 1317.609375 1243.964844 956.082031 1536.425781 1222.746094 C 1413.445312 978.128906 1078.363281 845.53125 895.640625 1127.226562 L 1118.425781 1062.054688 C 1015.792969 1106.480469 926.90625 1126.800781 820.09375 1158.128906 C 1035.691406 837.78125 1067.222656 449.316406 972.914062 275.746094 C 961.367188 402.792969 896.132812 522.839844 875.980469 554.457031 C 953.320312 338.628906 950.984375 274.058594 951.140625 256.578125 C 951.398438 217.214844 884.222656 166.085938 867.519531 137.625 C 533.617188 568.125 1024.019531 588.753906 821.378906 1075.414062 C 781.554688 977.933594 728.355469 878.742188 700.230469 783.402344 L 794.933594 995.433594 C 891.085938 673.613281 573.007812 504.164062 307.097656 568.902344 C 699.539062 619.039062 426.898438 856.332031 755.0625 995.597656 C 806.90625 1057.09375 760.386719 1111.144531 795.566406 1134.25 C 767.773438 1194.90625 734.234375 1260.648438 695.933594 1332.558594 L 643.164062 1218.457031 L 627.222656 1166.347656 L 683.238281 1291.746094 C 740.09375 1101.445312 534.363281 933.679688 377.085938 971.964844 C 609.140625 1001.675781 465.613281 1209.542969 659.652344 1291.851562 C 690.78125 1328.730469 664.285156 1335.609375 677.863281 1366.34375 Z M 677.863281 1366.34375 "/>
</g>
</svg>
