<?xml version="1.0" encoding="UTF-8"?>
<svg xmlns="http://www.w3.org/2000/svg" xmlns:xlink="http://www.w3.org/1999/xlink" width="1442pt" height="1432pt" viewBox="0 0 1442 1432" version="1.1">
<g id="surface1">
<path style=" stroke:none;fill-rule:nonzero;fill:rgb(97.647059%,97.647059%,97.647059%);fill-opacity:1;" d="M 533.558594 1076.003906 C 514.242188 1111.925781 493.550781 1149.777344 471.679688 1189.65625 L 510.058594 1207.421875 C 514.789062 1197.046875 519.847656 1185.695312 525.226562 1173.53125 C 550.257812 1167.589844 541.808594 1146.277344 580.277344 1146.132812 C 728.546875 1220.613281 730.476562 1052.246094 866.582031 1176.421875 C 809.347656 1062.496094 653.378906 1000.714844 568.3125 1131.921875 L 672.03125 1101.578125 L 632.671875 1118.597656 L 537.75 1145 C 561.0625 1091.625 589.316406 1026.515625 622.4375 958.347656 C 657.347656 956.988281 661.367188 911.957031 725.203125 911.707031 C 975.945312 1037.625 979.148438 752.917969 1209.347656 962.917969 C 1112.546875 770.28125 848.800781 665.859375 704.976562 887.695312 L 880.332031 836.375 C 799.550781 871.359375 729.585938 887.363281 645.511719 912.03125 C 815.210938 659.757812 840.03125 353.839844 765.796875 217.152344 C 756.710938 317.203125 705.363281 411.738281 689.5 436.636719 C 750.375 266.671875 748.535156 215.824219 748.660156 202.058594 C 748.863281 171.058594 695.988281 130.792969 682.839844 108.378906 C 420.019531 447.402344 806.023438 463.648438 646.523438 846.894531 C 615.175781 770.128906 573.300781 692.015625 551.164062 616.933594 L 625.707031 783.910156 C 701.390625 530.472656 451.023438 397.03125 241.722656 448.015625 C 550.621094 487.496094 336.019531 674.367188 594.324219 784.039062 C 635.128906 832.46875 598.515625 875.03125 626.203125 893.226562 C 604.328125 940.996094 577.929688 992.765625 547.78125 1049.398438 L 506.246094 959.542969 L 493.699219 918.503906 L 537.789062 1017.257812 C 582.542969 867.394531 420.605469 735.277344 296.8125 765.425781 C 479.464844 788.824219 366.492188 952.523438 519.222656 1017.339844 C 543.726562 1046.382812 522.871094 1051.800781 533.558594 1076.003906 Z M 533.558594 1076.003906 "/>
</g>
</svg>
